D:\Junayed_Zibat\opencap-processing\Data\312d5121-d82d-4833-a1b5-4f6827ad0820\OpenSimData\Dynamics\walking\GRF_resultant_walking_walking_setup.mot
version=1
nRows=20
nColumns=19
inDegrees=yes
endheader 
time	ground_force_right_vx	ground_force_right_vy	ground_force_right_vz	ground_force_right_px	ground_force_right_py	ground_force_right_pz	ground_torque_right_x	ground_torque_right_y	ground_torque_right_z	ground_force_left_vx	ground_force_left_vy	ground_force_left_vz	ground_force_left_px	ground_force_left_py	ground_force_left_pz	ground_torque_left_x	ground_torque_left_y	ground_torque_left_z	
          3.80000000	        -26.90465271	        840.70886555	          0.02170126	          1.19275161	          0.00000000	         -0.11752894	          0.00000000	          3.53373804	          0.00000000	        124.92179847	        154.16866763	        -67.39357468	          1.49562942	          0.00000000	         -0.43366679	          0.00000000	         -0.00049274	          0.00000000	
          3.81000000	        -36.18395173	        806.31356258	         10.12994140	          1.19765091	          0.00000000	         -0.11797493	          0.00000000	          2.34773843	          0.00000000	        125.64332666	        160.67883400	        -73.15004173	          1.49838647	          0.00000000	         -0.43079031	          0.00000000	         -0.11986066	          0.00000000	
          3.82000000	        -39.24264210	        773.46706342	         19.49900989	          1.20221251	          0.00000000	         -0.11856386	          0.00000000	          1.43045116	          0.00000000	        123.03718804	        166.78521553	        -78.25082294	          1.50484152	          0.00000000	         -0.42626775	          0.00000000	         -0.56465162	          0.00000000	
          3.83000000	        -40.25870201	        741.03315435	         27.51270099	          1.20661410	          0.00000000	         -0.11921484	          0.00000000	          0.74401811	          0.00000000	        122.29479076	        191.92397015	        -84.64248566	          1.52339151	          0.00000000	         -0.41591760	          0.00000000	         -1.62209002	          0.00000000	
          3.84000000	        -38.52577087	        706.58173318	         35.04089191	          1.21085109	          0.00000000	         -0.11984230	          0.00000000	          0.22247446	          0.00000000	        107.39072422	        229.75079381	        -84.95237835	          1.54481180	          0.00000000	         -0.40465492	          0.00000000	         -2.85491886	          0.00000000	
          3.85000000	        -35.79953055	        667.32856956	         42.23335229	          1.21515840	          0.00000000	         -0.12039379	          0.00000000	         -0.15396304	          0.00000000	         95.22451776	        268.83356708	        -82.37785184	          1.56308993	          0.00000000	         -0.39578631	          0.00000000	         -3.80524113	          0.00000000	
          3.86000000	        -32.24143522	        625.01944781	         49.13660649	          1.21980816	          0.00000000	         -0.12083713	          0.00000000	         -0.39264782	          0.00000000	         74.16351743	        317.47189173	        -77.34694248	          1.58275709	          0.00000000	         -0.38779497	          0.00000000	         -5.00424279	          0.00000000	
          3.87000000	        -30.38835116	        580.71752380	         55.68638157	          1.22480693	          0.00000000	         -0.12109201	          0.00000000	         -0.48952551	          0.00000000	         56.70977823	        359.58091094	        -71.41607020	          1.59838576	          0.00000000	         -0.38190479	          0.00000000	         -5.74538325	          0.00000000	
          3.88000000	        -28.54876978	        538.26869599	         61.35814836	          1.23008682	          0.00000000	         -0.12108347	          0.00000000	         -0.47265664	          0.00000000	         41.71335760	        381.27738108	        -69.05957300	          1.60889619	          0.00000000	         -0.37797331	          0.00000000	         -5.79752469	          0.00000000	
          3.89000000	        -28.34161299	        502.98836569	         65.34390620	          1.23523785	          0.00000000	         -0.12077656	          0.00000000	         -0.38412528	          0.00000000	         36.81864984	        385.11159744	        -65.79142858	          1.61628113	          0.00000000	         -0.37516849	          0.00000000	         -5.44738826	          0.00000000	
          3.90000000	        -28.11378968	        476.70257646	         67.22888126	          1.23992053	          0.00000000	         -0.12018087	          0.00000000	         -0.27903699	          0.00000000	         28.51969846	        375.50170293	        -66.10324858	          1.62146014	          0.00000000	         -0.37316367	          0.00000000	         -4.91461877	          0.00000000	
          3.91000000	        -28.63841111	        458.01926813	         67.31988965	          1.24405023	          0.00000000	         -0.11952400	          0.00000000	         -0.18789707	          0.00000000	         27.28277962	        359.59469784	        -64.46332868	          1.62538554	          0.00000000	         -0.37158227	          0.00000000	         -4.37244852	          0.00000000	
          3.92000000	        -29.18898446	        444.67014238	         65.77175252	          1.24765897	          0.00000000	         -0.11898830	          0.00000000	         -0.11179273	          0.00000000	         19.96777891	        340.64287692	        -64.87817819	          1.62822538	          0.00000000	         -0.37036770	          0.00000000	         -3.87758607	          0.00000000	
          3.93000000	        -30.45598307	        434.57864324	         62.62039199	          1.25058936	          0.00000000	         -0.11862460	          0.00000000	         -0.06517960	          0.00000000	         17.37794734	        323.55787206	        -62.61747013	          1.63052412	          0.00000000	         -0.36929733	          0.00000000	         -3.48088865	          0.00000000	
          3.94000000	        -31.47207878	        424.77485546	         58.31769611	          1.25283080	          0.00000000	         -0.11843528	          0.00000000	         -0.04708436	          0.00000000	          8.81755896	        309.40621974	        -60.65469610	          1.63218460	          0.00000000	         -0.36840958	          0.00000000	         -3.18160849	          0.00000000	
          3.95000000	        -33.03803323	        413.66335199	         53.34262974	          1.25422169	          0.00000000	         -0.11844760	          0.00000000	         -0.04921698	          0.00000000	          3.91560359	        300.76398131	        -55.57288748	          1.63344035	          0.00000000	         -0.36761798	          0.00000000	         -3.00602383	          0.00000000	
          3.96000000	        -34.65839572	        395.39007950	         48.44562234	          1.25518728	          0.00000000	         -0.11848123	          0.00000000	         -0.05241197	          0.00000000	         -5.43488543	        297.91748241	        -49.79165365	          1.63411122	          0.00000000	         -0.36701167	          0.00000000	         -2.95477313	          0.00000000	
          3.97000000	        -37.55410657	        367.01781019	         44.13813650	          1.25618107	          0.00000000	         -0.11833458	          0.00000000	         -0.04986771	          0.00000000	        -12.67997271	        302.89981380	        -41.67273755	          1.63430693	          0.00000000	         -0.36658053	          0.00000000	         -3.05908882	          0.00000000	
          3.98000000	        -41.12482739	        327.95676291	         40.75797098	          1.25720119	          0.00000000	         -0.11797701	          0.00000000	         -0.03508778	          0.00000000	        -22.59677322	        317.11886417	        -32.94398464	          1.63392271	          0.00000000	         -0.36639822	          0.00000000	         -3.33997130	          0.00000000	
          3.99000000	        -45.46810314	        279.86132488	         38.16571092	          1.25821833	          0.00000000	         -0.11739411	          0.00000000	         -0.00328834	          0.00000000	        -32.73907855	        342.99814877	        -23.63012875	          1.63296630	          0.00000000	         -0.36649327	          0.00000000	         -3.85510249	          0.00000000	
